<?xml version="1.0" standalone="no"?>
<!DOCTYPE svg PUBLIC "-//W3C//DTD SVG 20010904//EN"
 "http://www.w3.org/TR/2001/REC-SVG-20010904/DTD/svg10.dtd">
<svg version="1.0" xmlns="http://www.w3.org/2000/svg"
 width="200.000000pt" height="100.000000pt" viewBox="0 0 200.000000 100.000000"
 preserveAspectRatio="xMidYMid meet">
<metadata>
Created by potrace 1.16, written by Peter Selinger 2001-2019
</metadata>
<g transform="translate(0.000000,100.000000) scale(0.100000,-0.100000)"
fill="#000000" stroke="none">
<path d="M143 970 c-57 -34 -83 -120 -63 -202 15 -57 38 -80 115 -110 72 -29
90 -57 80 -124 -5 -35 -12 -47 -31 -54 -45 -18 -84 11 -84 61 0 16 -7 19 -45
19 l-45 0 0 -39 c0 -81 76 -146 163 -138 95 8 132 60 132 184 0 101 -16 127
-102 163 -83 35 -93 45 -93 95 0 84 78 104 101 25 12 -39 14 -40 56 -40 l43 0
0 38 c0 108 -133 180 -227 122z"/>
<path d="M422 624 l3 -196 28 -24 c32 -27 69 -31 110 -10 15 8 27 11 27 5 0
-5 20 -9 45 -9 l45 0 0 215 0 215 -45 0 -45 0 0 -159 c0 -132 -3 -162 -16
-175 -21 -21 -30 -20 -48 6 -13 18 -16 53 -16 175 l0 153 -46 0 -45 0 3 -196z"/>
<path d="M750 605 l0 -215 45 0 45 0 0 133 c0 145 8 174 53 195 31 15 67 8 67
-14 0 -20 88 -20 96 1 8 20 42 29 59 15 8 -7 15 -28 15 -46 l0 -34 -54 0 c-43
0 -61 -5 -83 -24 -25 -21 -28 -31 -31 -100 -4 -73 -3 -76 26 -106 35 -34 83
-40 120 -14 12 8 22 10 22 5 0 -6 20 -11 45 -11 l45 0 0 169 c0 93 -4 181 -10
195 -34 90 -202 84 -240 -9 -7 -15 -9 -7 -9 28 -1 42 -3 47 -24 47 -12 0 -39
-9 -60 -20 l-37 -20 0 20 c0 17 -7 20 -45 20 l-45 0 0 -215z m380 -74 c0 -37
-19 -71 -40 -71 -16 0 -40 31 -40 52 0 29 28 58 57 58 20 0 23 -5 23 -39z"/>
<path d="M70 170 l0 -160 25 0 c23 0 25 4 25 48 0 43 13 83 23 72 2 -3 12 -30
23 -60 16 -47 23 -55 47 -58 15 -2 27 1 27 6 0 5 -15 47 -33 94 l-34 85 29 63
c15 34 28 64 28 66 0 2 -11 4 -25 4 -22 0 -30 -10 -55 -62 l-29 -63 0 63 c-1
59 -2 62 -26 62 l-25 0 0 -160z"/>
<path d="M1110 305 c0 -21 5 -25 30 -25 25 0 30 4 30 25 0 21 -5 25 -30 25
-25 0 -30 -4 -30 -25z"/>
<path d="M270 220 c-11 -11 -20 -27 -20 -35 0 -18 41 -20 57 -4 13 13 33 4 33
-17 0 -8 -10 -14 -23 -14 -43 0 -67 -27 -67 -75 0 -55 21 -79 63 -71 16 3 40
6 53 6 24 0 24 1 24 98 0 83 -3 102 -18 115 -25 23 -78 21 -102 -3z m70 -139
c0 -11 -5 -23 -11 -27 -15 -9 -33 12 -26 30 9 23 37 20 37 -3z"/>
<path d="M420 124 l0 -114 30 0 30 0 0 78 c0 81 9 102 42 102 16 0 18 -10 18
-90 l0 -90 30 0 30 0 0 84 c0 52 4 88 11 92 20 12 29 -19 29 -98 0 -76 0 -78
25 -78 25 0 25 0 25 96 0 137 5 133 -145 132 l-125 0 0 -114z"/>
<path d="M730 220 c-11 -11 -20 -27 -20 -35 0 -18 41 -20 57 -4 13 13 33 4 33
-17 0 -8 -10 -14 -23 -14 -43 0 -67 -27 -67 -75 0 -55 21 -79 63 -71 16 3 40
6 53 6 24 0 24 1 24 98 0 83 -3 102 -18 115 -25 23 -78 21 -102 -3z m70 -139
c0 -11 -5 -23 -11 -27 -15 -9 -33 12 -26 30 9 23 37 20 37 -3z"/>
<path d="M870 228 c0 -13 23 -112 41 -180 8 -31 14 -38 34 -38 21 0 25 6 31
45 7 53 19 51 28 -5 5 -34 10 -40 31 -40 19 0 26 7 31 28 3 15 14 59 24 97
l18 70 1 -97 1 -98 30 0 30 0 0 115 0 116 -57 -3 -58 -3 -11 -55 -11 -55 -7
40 c-13 67 -17 75 -36 75 -20 0 -24 -9 -36 -80 l-8 -45 -11 60 c-10 55 -13 60
-38 63 -17 2 -27 -1 -27 -10z"/>
</g>
</svg>
